<?xml version="1.0" encoding="utf-8"?>
<!-- Generator: Adobe Illustrator 26.2.1, SVG Export Plug-In . SVG Version: 6.00 Build 0)  -->
<svg version="1.1" id="레이어_1" xmlns="http://www.w3.org/2000/svg" xmlns:xlink="http://www.w3.org/1999/xlink" x="0px"
	 y="0px" viewBox="0 0 24 24" style="enable-background:new 0 0 24 24;" xml:space="preserve">
<path d="M14.7,3.5c-0.2,0-0.5,0-0.7,0.1C13,3.7,12.1,4,11.3,4.4c-0.9,0.4-1.7,1-2.4,1.7c0,0-0.1,0.1-0.1,0C8.3,6.1,7.8,6,7.4,6.1
	c-1,0-1.9,0.3-2.8,0.7C2.8,7.7,1.7,9,1,10.7c-0.3,0.7-0.4,1.3-0.4,2c0,0,0,0.1,0,0.1v0.7c0,0.2,0,0.4,0.1,0.6
	c0.1,0.8,0.3,1.5,0.7,2.2c0.8,1.6,2,2.7,3.6,3.4c0.7,0.3,1.5,0.5,2.3,0.6c0,0,0.1,0,0.1,0h8.2c0.2,0,0.3,0,0.5-0.1
	c0.9-0.1,1.9-0.4,2.7-0.8c1.4-0.7,2.7-1.8,3.5-3.2c0.6-0.9,1-1.9,1.1-3c0-0.3,0.1-0.7,0.1-1c0,0,0-0.1,0-0.1v-0.8c0-0.2,0-0.4,0-0.6
	c-0.1-0.9-0.4-1.9-0.8-2.7c-0.7-1.4-1.8-2.7-3.2-3.5c-0.9-0.6-1.9-1-2.9-1.1c-0.3-0.1-0.7-0.1-1-0.1c0,0-0.1,0-0.1,0L14.7,3.5z
	 M15,5.1c2,0,3.8,0.8,5.2,2.4c0.8,0.9,1.3,2,1.5,3.2c0.1,0.7,0.2,1.5,0.1,2.2c-0.2,1.3-0.7,2.4-1.5,3.5c-1,1.2-2.3,2-3.8,2.3
	c-0.8,0.2-1.6,0.2-2.5,0.1c-1-0.1-2-0.5-2.9-1.1c-0.2-0.2-0.4-0.3-0.6-0.5C9.3,16,8.2,14.8,7,13.7c-0.3-0.3-0.3-0.6-0.2-0.9
	c0.1-0.3,0.5-0.5,0.8-0.5c0.2,0,0.4,0.1,0.5,0.3c1.1,1.1,2.1,2.1,3.2,3.2c0.8,0.8,1.8,1.3,3,1.5c1.9,0.3,3.5-0.3,4.7-1.7
	c0.7-0.8,1.1-1.7,1.3-2.7c0.2-1.5-0.1-2.9-1-4.1c-0.8-1.1-1.9-1.7-3.3-2c-1.4-0.2-2.6,0-3.8,0.8c0,0-0.1,0-0.1,0
	c-0.4-0.3-0.9-0.6-1.3-0.8c0,0,0,0,0,0c0.4-0.3,0.8-0.6,1.2-0.8c0.8-0.4,1.6-0.7,2.5-0.8C14.6,5.2,14.8,5.1,15,5.1L15,5.1z M7.7,7.7
	c1.4,0,2.7,0.5,3.8,1.6c0.8,0.8,1.6,1.6,2.4,2.4c0.2,0.2,0.3,0.5,0.2,0.8c-0.1,0.3-0.3,0.4-0.7,0.5c-0.2,0-0.5-0.1-0.6-0.2
	c-0.8-0.8-1.5-1.5-2.2-2.3c-0.6-0.6-1.3-1-2.2-1.1C6.5,9,4.6,10.1,3.9,11.8c-0.9,2.3,0.5,4.8,2.9,5.4c0.5,0.1,1,0.1,1.4,0.1
	c0.1,0,0.2,0,0.3,0.1c0.5,0.5,1,0.9,1.4,1.4c0,0,0.1,0.1,0.1,0.1c-0.1,0-0.1,0-0.1,0H7.7c-2.6,0-4.9-1.8-5.5-4.4
	C1.7,11.7,3.3,8.8,6,8C6.6,7.8,7.2,7.7,7.7,7.7z"/>
</svg>
