<?xml version="1.0" encoding="utf-8"?>
<!-- Generator: Adobe Illustrator 26.1.0, SVG Export Plug-In . SVG Version: 6.00 Build 0)  -->
<svg version="1.1" id="레이어_1" xmlns="http://www.w3.org/2000/svg" xmlns:xlink="http://www.w3.org/1999/xlink" x="0px"
	 y="0px" viewBox="0 0 799.787 714.793" enable-background="new 0 0 799.787 714.793" xml:space="preserve">
<g>
	<path fill="#333567" d="M0,434.874c2.008-4.458,1.246-9.316,1.795-13.955c6.394-54.064,26.664-102.194,61.87-143.704
		c26.448-31.185,59.093-54.04,96.964-69.579c21.662-8.888,44.082-14.85,67.246-17.384c72.613-7.943,137.843,10.616,195.275,55.909
		c6.383,5.034,12.154,10.84,18.292,16.193c1.68,1.465,2.22,2.522,0.353,4.313c-2.996,2.874-5.678,6.074-8.649,8.977
		c-2.976,2.908-6.142,5.621-9.427,8.603c-12.933-12.442-27.357-24.102-43.34-33.767c-22.658-13.7-46.91-23.156-72.864-28.575
		c-23.698-4.947-47.576-6.474-71.529-3.831c-43.267,4.773-82.531,20.108-116.874,47.133c-45.14,35.521-74.272,81.131-84.804,137.859
		c-5.193,27.97-5.167,56.236-1.502,84.46c5.194,40.003,20.103,76.172,44.664,107.998c29.905,38.751,68.216,66.326,115.363,80.125
		c75.615,22.131,145.452,9.412,208.928-37.34c7.213-5.312,13.993-11.262,20.192-17.779c1.658-1.743,2.542-1.834,4.25,0.003
		c4.876,5.242,9.866,10.396,15.082,15.296c2.442,2.294,1.717,3.46-0.313,5.421c-30.46,29.428-65.99,50.24-106.512,62.393
		c-19.719,5.914-39.835,9.962-60.554,10.157c-0.809,0.008-1.693-0.086-1.976,0.992c-8.664,0-17.329,0-25.993,0
		c-0.324-1.056-1.213-0.919-2.016-0.945c-18.432-0.587-36.419-3.878-54.146-8.822c-50.747-14.154-93.223-41.294-127.435-81.31
		c-34.775-40.674-54.423-87.849-60.511-140.91c-0.57-4.967,0.308-10.162-1.827-14.942C0,456.867,0,445.871,0,434.874z"/>
	<path fill="#333567" d="M799.787,462.866c-57.313,0.001-114.625,0.055-171.937-0.105c-4.233-0.012-5.318,1.063-5.043,5.181
		c1.562,23.364,6.154,45.661,21.56,64.359c14.182,17.211,32.989,25.099,54.736,26.466c30.268,1.903,57.044-7.671,81.133-25.596
		c1.124-0.837,2.1-2.095,4.181-2.131c0,8.991-0.047,17.905,0.034,26.818c0.02,2.201-1.283,3.278-2.824,4.321
		c-17.623,11.925-37.167,18.719-58.134,21.627c-12.894,1.788-25.944,2.542-38.809,0.935c-29.865-3.731-54.616-16.857-71.501-42.487
		c-12.255-18.602-18.468-39.252-20.566-61.503c-1.252-13.277-1.995-26.401-0.804-39.669c4.15-46.246,30.444-91.563,77.656-106.536
		c29.001-9.197,57.783-7.519,84.433,8.547c20.527,12.375,32.047,31.697,38.848,54.117c3.668,12.092,5.992,24.448,6.104,37.145
		c0.006,0.706,0.171,1.29,0.933,1.519C799.787,444.871,799.787,453.868,799.787,462.866z M695.778,436.001
		c22.661,0,45.322-0.062,67.981,0.071c3.192,0.019,4.289-0.673,4.133-4.073c-0.368-8.007-1.255-15.948-3.19-23.688
		c-7.531-30.116-25.216-49.981-58.446-52.223c-22.661-1.529-42.551,5.617-58.139,22.719c-13.126,14.401-20.057,31.771-23.339,50.745
		c-1.112,6.426-1.029,6.442,5.517,6.443C652.123,435.996,673.951,435.995,695.778,436.001z"/>
	<path fill="#333567" d="M270.928,0c3.252,1.705,6.972,1.079,10.381,2.108c3.999,1.207,6.56,7.171,4.305,10.662
		c-1.21,1.872-2.701,0.965-4.341,0.354c-9.055-3.369-18.356-4.512-27.831-2.126c-7.108,1.79-12.795,5.495-14.56,13.166
		c-1.954,8.493,0.863,15.312,7.89,20.414c8.466,6.146,18.251,10.059,26.918,15.865c7.71,5.166,14.487,10.983,16.366,20.841
		c2.767,14.521-4.66,27.891-18.419,32.451c-14.157,4.692-28.099,3.184-41.858-1.843c-2.039-0.745-3.177-1.895-2.922-4.376
		c0.285-2.779,0.065-5.609,0.065-9.035c6.688,3.749,13.139,6.896,20.397,7.978c7.013,1.045,13.937,0.908,20.623-1.472
		c12.48-4.442,16.057-20.121,6.901-29.74c-6.184-6.496-14.38-9.935-21.939-14.33c-6.312-3.67-12.718-7.187-17.951-12.407
		c-11.058-11.03-10.101-29.846,2.113-39.641c5.78-4.635,12.32-7.576,19.852-7.928c0.794-0.037,1.695,0.126,2.014-0.941
		C262.93,0,266.929,0,270.928,0z"/>
	<path fill="#02BEE0" d="M256.914,543.687c-40.742,1.429-72.515-23.543-80.881-63.989c-5.504-26.606-3.676-52.686,9.276-77.041
		c11.527-21.674,30.15-34.057,54.086-38.782c18.096-3.572,35.948-2.822,53.222,3.736c22.083,8.384,36.066,24.857,43.089,46.901
		c7.862,24.675,8.384,49.819,0.084,74.527c-10.689,31.823-33.297,49.807-66.407,54.568
		C265.307,544.193,261.074,543.687,256.914,543.687z"/>
	<path fill="#333567" d="M475.117,387.39c1.379-3.566,2.519-6.879,3.919-10.078c9.384-21.432,23.207-38.348,46.902-44.623
		c11.937-3.161,24.024-2.627,35.951,0.484c1.702,0.444,3.777,0.636,3.702,3.666c-0.238,9.582-0.088,19.174-0.088,29.509
		c-9.776-6.291-20.01-8.041-30.823-7.568c-16.936,0.741-29.411,9.207-39.041,22.428c-10.685,14.669-15.704,31.595-18.737,49.213
		c-2.038,11.837-2.48,23.791-2.461,35.784c0.056,36.139-0.046,72.278,0.117,108.416c0.018,4.022-0.746,5.52-5.082,5.27
		c-6.972-0.401-13.994-0.336-20.974-0.017c-3.745,0.172-4.681-0.88-4.669-4.646c0.142-46.63,0.094-93.261,0.094-139.892
		c0-31.642,0.126-63.286-0.132-94.926c-0.039-4.826,1.475-5.747,5.808-5.535c6.978,0.341,13.99,0.248,20.978,0.019
		c3.04-0.1,3.998,0.688,3.945,3.835c-0.267,15.805-0.301,31.613-0.388,47.421C474.137,386.386,474.497,386.624,475.117,387.39z"/>
	<path fill="#333567" d="M509.876,98.638c-0.915-31.123-0.331-61.057-0.437-90.988c-0.007-1.843-1.075-4.658,1.211-5.308
		c2.615-0.744,5.678-0.597,8.392-0.059c1.698,0.337,0.834,2.619,0.838,4.005c0.053,18.482,0.035,36.963,0.034,55.445
		c0,16.151-0.117,32.303,0.089,48.451c0.046,3.626-0.709,4.66-4.555,4.806c-4.78,0.182-7.237-1.594-9.87-5.448
		c-19.268-28.203-38.851-56.19-58.313-84.26c-1.583-2.283-2.999-4.681-4.562-7.135c0,30.61,0.019,61.017-0.05,91.424
		c-0.004,1.682,1.116,4.394-0.952,4.908c-2.812,0.698-5.96,0.41-8.904,0.05c-1.319-0.161-0.808-1.98-0.808-3.079
		c-0.02-35.298,0.017-70.597-0.081-105.895c-0.008-2.927,1.01-3.332,3.678-3.617c5.946-0.635,9.329,1.591,12.744,6.666
		c18.59,27.63,37.711,54.903,56.629,82.312C506.447,93.073,507.779,95.335,509.876,98.638z"/>
	<path fill="#333567" d="M113.925,114.79c14.168-37.041,28.164-73.358,41.859-109.788c1.673-4.451,4.677-2.57,7.281-2.899
		c2.451-0.309,4.529-0.356,5.763,2.95c13.265,35.543,26.711,71.019,40.215,106.472c1.004,2.636,0.943,3.331-2.153,3.347
		c-8.338,0.044-8.277,0.171-11.237-7.867c-2.794-7.587-5.825-15.086-8.55-22.697c-0.764-2.134-1.481-3.036-4.048-2.998
		c-13.809,0.205-27.623,0.167-41.435,0.055c-2.714-0.022-4.081,0.649-5.03,3.445c-2.918,8.599-6.512,16.973-9.296,25.611
		c-1.133,3.515-2.599,4.917-6.216,4.421C118.964,114.553,116.778,114.79,113.925,114.79z M161.312,13.841
		c-0.244,4.442-1.454,7.328-2.524,10.26c-5.376,14.734-10.649,29.507-16.169,44.187c-1.11,2.951-0.759,3.736,2.435,3.7
		c11.321-0.127,22.646-0.097,33.968-0.016c2.739,0.02,3.426-0.454,2.333-3.374C174.728,50.879,168.324,33.077,161.312,13.841z"/>
	<path fill="#333567" d="M317.517,58.155c0-17.15,0.098-34.302-0.079-51.45c-0.038-3.641,0.805-4.96,4.677-4.728
		c11.275,0.675,22.61-0.83,33.875,0.939c15.284,2.4,25.391,11.734,26.915,25.037c2.09,18.246-5.227,32.663-19.3,38.944
		c-10.114,4.515-20.72,4.204-31.331,3.938c-3.477-0.087-4.462,0.796-4.391,4.336c0.238,11.817-0.009,23.644,0.157,35.464
		c0.043,3.083-0.47,4.736-3.989,4.212c-2.883-0.429-6.693,1.567-6.608-4.244c0.255-17.48,0.092-34.965,0.092-52.449
		C317.53,58.155,317.523,58.155,317.517,58.155z M327.975,36.225c0,7.145-0.031,14.29,0.026,21.434
		c0.012,1.463-0.796,3.574,2.086,3.45c8.104-0.347,16.271,0.793,24.309-1.142c11.402-2.745,18.088-11.862,18.018-24.678
		c-0.068-12.486-5.623-19.666-17.538-22.455c-8.191-1.917-16.539-0.675-24.809-1.036c-2.423-0.106-2.087,1.524-2.088,2.991
		C327.973,21.935,327.976,29.08,327.975,36.225z"/>
	<path fill="#333567" d="M551.8,58.319c-0.002-17.314,0.096-34.629-0.084-51.941c-0.036-3.442,0.774-4.467,4.34-4.419
		c15.647,0.213,31.301,0.272,46.945-0.009c4.364-0.078,3.852,2.238,3.816,4.944c-0.035,2.628,0.702,5.137-3.755,5.022
		c-12.145-0.311-24.306,0.03-36.456-0.176c-3.488-0.059-4.636,0.352-4.466,4.413c0.46,10.968,0.334,21.974,0.027,32.953
		c-0.089,3.201,0.679,3.921,3.697,3.882c11.319-0.147,22.643,0.069,33.961-0.134c3.187-0.057,4.203,0.902,3.71,3.937
		c-0.397,2.44,1.477,5.851-3.59,5.744c-11.316-0.239-22.641-0.001-33.96-0.146c-2.885-0.037-3.898,0.45-3.811,3.755
		c0.296,11.313,0.276,22.642,0.029,33.957c-0.083,3.797,0.772,5.102,4.83,5.011c12.646-0.283,25.312,0.158,37.951-0.254
		c4.626-0.151,4.093,2.443,4.177,5.132c0.091,2.931,0.106,5.065-4.364,4.959c-16.306-0.388-32.628-0.238-48.942-0.072
		c-3.254,0.033-4.172-0.789-4.138-4.119C551.897,93.281,551.802,75.8,551.8,58.319z"/>
	<path fill="#333567" d="M665.871,63.686c0,15.647-0.198,31.299,0.127,46.939c0.091,4.399-1.927,4.385-5.023,4.218
		c-2.893-0.156-5.738,0.885-5.698-4.216c0.246-31.792,0.079-63.587,0.213-95.381c0.012-2.82-0.54-3.579-3.385-3.512
		c-8.485,0.199-16.988-0.179-25.463,0.177c-4.45,0.187-3.726-2.387-3.757-5.025c-0.032-2.711-0.538-4.989,3.815-4.943
		c22.637,0.236,45.279,0.26,67.915-0.004c4.769-0.056,3.73,2.572,3.932,5.287c0.232,3.118-0.107,4.847-4.066,4.675
		c-7.809-0.339-15.654,0.164-23.462-0.184c-4.048-0.18-5.345,0.704-5.263,5.029C666.049,32.388,665.871,48.039,665.871,63.686z"/>
	<path fill="#333567" d="M397.119,116.027c-4.496-0.08-7.361-3.084-7.267-7.621c0.089-4.292,3.526-7.608,7.679-7.41
		c4.239,0.202,7.481,3.633,7.377,7.808C404.8,113.158,401.62,116.107,397.119,116.027z"/>
</g>
</svg>
