<?xml version="1.0" encoding="utf-8"?>
<!-- Generator: Adobe Illustrator 26.2.1, SVG Export Plug-In . SVG Version: 6.00 Build 0)  -->
<svg version="1.1" id="레이어_1" xmlns="http://www.w3.org/2000/svg" xmlns:xlink="http://www.w3.org/1999/xlink" x="0px"
	 y="0px" viewBox="0 0 24 24" style="enable-background:new 0 0 24 24;" xml:space="preserve">
<g>
	<g>
		<path d="M7.3,12c0,1.5-1.2,2.7-2.7,2.7S2,13.5,2,12s1.2-2.7,2.7-2.7S7.3,10.5,7.3,12z"/>
		<path d="M14.7,12c0,1.5-1.2,2.7-2.7,2.7S9.3,13.5,9.3,12s1.2-2.7,2.7-2.7S14.7,10.5,14.7,12z"/>
		<path d="M22,12c0,1.5-1.2,2.7-2.7,2.7c-1.5,0-2.7-1.2-2.7-2.7s1.2-2.7,2.7-2.7C20.8,9.3,22,10.5,22,12z"/>
	</g>
</g>
</svg>
